<svg width="92" height="21" viewBox="0 0 92 21" fill="none" xmlns="http://www.w3.org/2000/svg">
<path d="M3.888 1.93V13.448C3.888 14.8173 4.24333 15.8487 4.954 16.542C5.682 17.2353 6.68733 17.582 7.97 17.582C9.27 17.582 10.2753 17.2353 10.986 16.542C11.714 15.8487 12.078 14.8173 12.078 13.448L12.078 1.93L15.042 1.93V13.396C15.042 14.8693 14.7213 16.1173 14.08 17.14C13.4387 18.1627 12.5807 18.9253 11.506 19.428C10.4313 19.9307 9.244 20.182 7.944 20.182C6.644 20.182 5.45667 19.9307 4.382 19.428C3.32467 18.9253 2.484 18.1627 1.86 17.14C1.236 16.1173 0.924 14.8693 0.924 13.396L0.924 1.93H3.888ZM21.8652 1.93V20H18.9012V1.93H21.8652ZM26.9526 20.182C26.4153 20.182 25.9646 20 25.6006 19.636C25.2366 19.272 25.0546 18.8213 25.0546 18.284C25.0546 17.7467 25.2366 17.296 25.6006 16.932C25.9646 16.568 26.4153 16.386 26.9526 16.386C27.4726 16.386 27.9146 16.568 28.2786 16.932C28.6426 17.296 28.8246 17.7467 28.8246 18.284C28.8246 18.8213 28.6426 19.272 28.2786 19.636C27.9146 20 27.4726 20.182 26.9526 20.182ZM31.0401 12.772C31.0401 11.3333 31.3348 10.0593 31.9241 8.95C32.5308 7.84067 33.3455 6.98267 34.3681 6.376C35.4081 5.752 36.5608 5.44 37.8261 5.44C38.7621 5.44 39.6808 5.648 40.5821 6.064C41.5008 6.46267 42.2288 7 42.7661 7.676V0.76H45.7561V20H42.7661V17.842C42.2808 18.5353 41.6048 19.1073 40.7381 19.558C39.8888 20.0087 38.9095 20.234 37.8001 20.234C36.5521 20.234 35.4081 19.922 34.3681 19.298C33.3455 18.6567 32.5308 17.7727 31.9241 16.646C31.3348 15.502 31.0401 14.2107 31.0401 12.772ZM42.7661 12.824C42.7661 11.836 42.5581 10.978 42.1421 10.25C41.7435 9.522 41.2148 8.96733 40.5561 8.586C39.8975 8.20467 39.1868 8.014 38.4241 8.014C37.6615 8.014 36.9508 8.20467 36.2921 8.586C35.6335 8.95 35.0961 9.496 34.6801 10.224C34.2815 10.9347 34.0821 11.784 34.0821 12.772C34.0821 13.76 34.2815 14.6267 34.6801 15.372C35.0961 16.1173 35.6335 16.6893 36.2921 17.088C36.9681 17.4693 37.6788 17.66 38.4241 17.66C39.1868 17.66 39.8975 17.4693 40.5561 17.088C41.2148 16.7067 41.7435 16.152 42.1421 15.424C42.5581 14.6787 42.7661 13.812 42.7661 12.824ZM62.7792 12.486C62.7792 13.0233 62.7446 13.5087 62.6752 13.942H51.7292C51.8159 15.086 52.2406 16.0047 53.0032 16.698C53.7659 17.3913 54.7019 17.738 55.8112 17.738C57.4059 17.738 58.5326 17.0707 59.1912 15.736H62.3892C61.9559 17.0533 61.1672 18.1367 60.0232 18.986C58.8966 19.818 57.4926 20.234 55.8112 20.234C54.4419 20.234 53.2112 19.9307 52.1192 19.324C51.0446 18.7 50.1952 17.8333 49.5712 16.724C48.9646 15.5973 48.6612 14.2973 48.6612 12.824C48.6612 11.3507 48.9559 10.0593 49.5452 8.95C50.1519 7.82333 50.9926 6.95667 52.0672 6.35C53.1592 5.74333 54.4072 5.44 55.8112 5.44C57.1632 5.44 58.3679 5.73467 59.4252 6.324C60.4826 6.91333 61.3059 7.74533 61.8952 8.82C62.4846 9.87733 62.7792 11.0993 62.7792 12.486ZM59.6852 11.55C59.6679 10.458 59.2779 9.58267 58.5152 8.924C57.7526 8.26533 56.8079 7.936 55.6812 7.936C54.6586 7.936 53.7832 8.26533 53.0552 8.924C52.3272 9.56533 51.8939 10.4407 51.7552 11.55H59.6852ZM70.8961 20.234C69.7694 20.234 68.7554 20.0347 67.8541 19.636C66.9701 19.22 66.2681 18.6653 65.7481 17.972C65.2281 17.2613 64.9508 16.4727 64.9161 15.606H67.9841C68.0361 16.2127 68.3221 16.724 68.8421 17.14C69.3794 17.5387 70.0468 17.738 70.8441 17.738C71.6761 17.738 72.3174 17.582 72.7681 17.27C73.2361 16.9407 73.4701 16.5247 73.4701 16.022C73.4701 15.4847 73.2101 15.086 72.6901 14.826C72.1874 14.566 71.3814 14.28 70.2721 13.968C69.1974 13.6733 68.3221 13.3873 67.6461 13.11C66.9701 12.8327 66.3808 12.408 65.8781 11.836C65.3928 11.264 65.1501 10.51 65.1501 9.574C65.1501 8.81133 65.3754 8.118 65.8261 7.494C66.2768 6.85267 66.9181 6.35 67.7501 5.986C68.5994 5.622 69.5701 5.44 70.6621 5.44C72.2914 5.44 73.6001 5.856 74.5881 6.688C75.5934 7.50267 76.1308 8.62067 76.2001 10.042H73.2361C73.1841 9.40067 72.9241 8.88933 72.4561 8.508C71.9881 8.12667 71.3554 7.936 70.5581 7.936C69.7781 7.936 69.1801 8.08333 68.7641 8.378C68.3481 8.67267 68.1401 9.06267 68.1401 9.548C68.1401 9.92933 68.2788 10.25 68.5561 10.51C68.8334 10.77 69.1714 10.978 69.5701 11.134C69.9688 11.2727 70.5581 11.4547 71.3381 11.68C72.3781 11.9573 73.2274 12.2433 73.8861 12.538C74.5621 12.8153 75.1428 13.2313 75.6281 13.786C76.1134 14.3407 76.3648 15.0773 76.3821 15.996C76.3821 16.8107 76.1568 17.5387 75.7061 18.18C75.2554 18.8213 74.6141 19.324 73.7821 19.688C72.9674 20.052 72.0054 20.234 70.8961 20.234ZM85.2528 12.85L91.8568 20H87.8528L82.5488 13.838V20H79.5848V0.76H82.5488V11.94L87.7488 5.674H91.8568L85.2528 12.85Z" fill="#333333"/>
</svg>
